g Table
v -0.02618144 -0.02384911 0.02471895
v -0.02654185 -0.02420952 -0.0002583079
v -0.02654185 -0.02014537 -0.0002583079
v -0.02618144 -0.02050578 0.02471895
v -0.02618144 -0.02384911 0.02805605
v -0.02618144 0 0.02805605
v -0.02618144 0 0.02471895
v -0.02618144 0.02050578 0.02471895
v -0.02618144 0.02384911 0.02805605
v -0.02618144 0.02384911 0.02471895
v -0.02654185 0.02014537 -0.0002583079
v -0.02654185 0.02420952 -0.0002583079
v -0.02618144 -0.02050578 0.02471895
v -0.02654185 -0.02014537 -0.0002583079
v -0.0224777 -0.02014537 -0.0002583079
v -0.02283811 -0.02050578 0.02471895
v 0 -0.02050578 0.02805605
v -0.02283811 -0.02050578 0.02805605
v 0 -0.02050578 0.02471895
v 0.02283811 -0.02050578 0.02471895
v 0.02283811 -0.02050578 0.02805605
v 0.02618144 -0.02050578 0.02471895
v 0.0224777 -0.02014537 -0.0002583079
v 0.02654185 -0.02014537 -0.0002583079
v -0.02283811 -0.02050578 0.02471895
v -0.0224777 -0.02014537 -0.0002583079
v -0.0224777 -0.02420952 -0.0002583079
v -0.02283811 -0.02384911 0.02471895
v -0.02283811 -0.02050578 0.02805605
v -0.02283811 0 0.02471895
v -0.02283811 0 0.02805605
v -0.02283811 0.02050578 0.02805605
v -0.02283811 0.02050578 0.02471895
v -0.02283811 0.02384911 0.02471895
v -0.0224777 0.02420952 -0.0002583079
v -0.0224777 0.02014537 -0.0002583079
v -0.02283811 -0.02384911 0.02471895
v -0.0224777 -0.02420952 -0.0002583079
v -0.02654185 -0.02420952 -0.0002583079
v -0.02618144 -0.02384911 0.02471895
v -0.02618144 -0.02384911 0.02805605
v 0 -0.02384911 0.02471895
v 0 -0.02384911 0.02805605
v 0.02618144 -0.02384911 0.02805605
v 0.02283811 -0.02384911 0.02471895
v 0.02618144 -0.02384911 0.02471895
v 0.02654185 -0.02420952 -0.0002583079
v 0.0224777 -0.02420952 -0.0002583079
v -0.02654185 -0.02420952 -0.0002583079
v -0.0224777 -0.02420952 -0.0002583079
v -0.0224777 -0.02014537 -0.0002583079
v -0.02654185 -0.02014537 -0.0002583079
v -0.02283811 -0.02050578 0.02471895
v -0.02618144 0 0.02471895
v -0.02618144 -0.02050578 0.02471895
v -0.02283811 0 0.02471895
v -0.02283811 0.02050578 0.02471895
v -0.02618144 0.02050578 0.02471895
v -0.02283811 -0.02384911 0.02471895
v 0 -0.02050578 0.02471895
v 0 -0.02384911 0.02471895
v 0.02283811 -0.02384911 0.02471895
v 0.02283811 -0.02050578 0.02471895
v -0.02283811 0.02384911 0.02471895
v 0 0.02050578 0.02471895
v 0 0.02384911 0.02471895
v 0.02283811 0.02384911 0.02471895
v 0.02283811 0.02050578 0.02471895
v 0.02618144 -0.02050578 0.02471895
v 0.02618144 0 0.02471895
v 0.02618144 0.02050578 0.02471895
v 0.02283811 0 0.02471895
v 0.02618144 -0.02384911 0.02471895
v 0.02654185 -0.02014537 -0.0002583079
v 0.02654185 -0.02420952 -0.0002583079
v 0.02618144 -0.02050578 0.02471895
v 0.02618144 -0.02384911 0.02805605
v 0.02618144 0 0.02805605
v 0.02618144 0 0.02471895
v 0.02618144 0.02050578 0.02471895
v 0.02618144 0.02384911 0.02805605
v 0.02618144 0.02384911 0.02471895
v 0.02654185 0.02014537 -0.0002583079
v 0.02654185 0.02420952 -0.0002583079
v 0.02283811 -0.02050578 0.02471895
v 0.02283811 -0.02384911 0.02471895
v 0.0224777 -0.02420952 -0.0002583079
v 0.0224777 -0.02014537 -0.0002583079
v 0.02283811 -0.02050578 0.02805605
v 0.02283811 0 0.02471895
v 0.02283811 0 0.02805605
v 0.02283811 0.02050578 0.02805605
v 0.02283811 0.02050578 0.02471895
v 0.0224777 0.02014537 -0.0002583079
v 0.0224777 0.02420952 -0.0002583079
v 0.02283811 0.02384911 0.02471895
v 0.02654185 -0.02420952 -0.0002583079
v 0.02654185 -0.02014537 -0.0002583079
v 0.0224777 -0.02014537 -0.0002583079
v 0.0224777 -0.02420952 -0.0002583079
v -0.02618144 0.02050578 0.02471895
v -0.0224777 0.02014537 -0.0002583079
v -0.02654185 0.02014537 -0.0002583079
v -0.02283811 0.02050578 0.02471895
v -0.02283811 0.02050578 0.02805605
v 0 0.02050578 0.02805605
v 0 0.02050578 0.02471895
v 0.02283811 0.02050578 0.02471895
v 0.02283811 0.02050578 0.02805605
v 0.02618144 0.02050578 0.02471895
v 0.0224777 0.02014537 -0.0002583079
v 0.02654185 0.02014537 -0.0002583079
v -0.02283811 0.02384911 0.02471895
v -0.02654185 0.02420952 -0.0002583079
v -0.0224777 0.02420952 -0.0002583079
v -0.02618144 0.02384911 0.02471895
v -0.02618144 0.02384911 0.02805605
v 0 0.02384911 0.02471895
v 0 0.02384911 0.02805605
v 0.02618144 0.02384911 0.02805605
v 0.02283811 0.02384911 0.02471895
v 0.02618144 0.02384911 0.02471895
v 0.02654185 0.02420952 -0.0002583079
v 0.0224777 0.02420952 -0.0002583079
v -0.02654185 0.02420952 -0.0002583079
v -0.02654185 0.02014537 -0.0002583079
v -0.0224777 0.02014537 -0.0002583079
v -0.0224777 0.02420952 -0.0002583079
v 0.02654185 0.02420952 -0.0002583079
v 0.0224777 0.02420952 -0.0002583079
v 0.0224777 0.02014537 -0.0002583079
v 0.02654185 0.02014537 -0.0002583079
v -0.02764798 0 0.02805605
v -0.02764798 -0.02540578 0.03088343
v -0.02764798 -0.02540578 0.02805605
v -0.02764798 0 0.03088343
v -0.02764798 0.02540578 0.03088343
v -0.02764798 0.02540578 0.02805605
v -0.02764798 -0.02540578 0.02805605
v -0.02764798 -0.02540578 0.03088343
v 0 -0.02540578 0.03088343
v 0 -0.02540578 0.02805605
v 0.02764798 -0.02540578 0.02805605
v 0.02764798 -0.02540578 0.03088343
v 0.02764798 0 0.02805605
v 0.02764798 -0.02540578 0.02805605
v 0.02764798 -0.02540578 0.03088343
v 0.02764798 0 0.03088343
v 0.02764798 0.02540578 0.03088343
v 0.02764798 0.02540578 0.02805605
v -0.02764798 0.02540578 0.02805605
v 0 0.02540578 0.03088343
v -0.02764798 0.02540578 0.03088343
v 0 0.02540578 0.02805605
v 0.02764798 0.02540578 0.02805605
v 0.02764798 0.02540578 0.03088343
v -0.02764798 -0.02540578 0.03088343
v 0 0 0.03088343
v 0 -0.02540578 0.03088343
v -0.02764798 0 0.03088343
v 0.02764798 -0.02540578 0.03088343
v -0.02764798 0.02540578 0.03088343
v 0.02764798 0 0.03088343
v 0 0.02540578 0.03088343
v 0.02764798 0.02540578 0.03088343
v -0.02618144 -0.02384911 0.02805605
v 0 -0.02540578 0.02805605
v 0 -0.02384911 0.02805605
v 0.02618144 -0.02384911 0.02805605
v -0.02764798 -0.02540578 0.02805605
v 0.02764798 -0.02540578 0.02805605
v -0.02618144 0 0.02805605
v -0.02764798 0 0.02805605
v -0.02764798 0.02540578 0.02805605
v -0.02618144 0.02384911 0.02805605
v 0.02618144 0 0.02805605
v 0.02764798 0 0.02805605
v 0.02764798 0.02540578 0.02805605
v 0.02618144 0.02384911 0.02805605
v 0 0.02540578 0.02805605
v 0 0.02384911 0.02805605
v 0 -0.02050578 0.02805605
v 0 0 0.02805605
v -0.02283811 -0.02050578 0.02805605
v 0.02283811 -0.02050578 0.02805605
v -0.02283811 0 0.02805605
v 0.02283811 0 0.02805605
v -0.02283811 0.02050578 0.02805605
v 0.02283811 0.02050578 0.02805605
v 0 0.02050578 0.02805605
vn -1 0 0.01442719
vn -1 0 0.01442719
vn -1 0 0.01442719
vn -1 0 0.01442719
vn -1 0 0
vn -1 0 0
vn -1 0 0
vn -1 0 0.01442719
vn -1 0 0
vn -1 0 0.01442719
vn -1 0 0.01442719
vn -1 0 0.01442719
vn 0 1 0.01442719
vn 0 1 0.01442719
vn 0 1 0.01442719
vn 0 1 0.01442719
vn 0 1 0
vn 0 1 0
vn 0 1 0
vn 0 1 0.01442719
vn 0 1 0
vn 0 1 0.01442719
vn 0 1 0.01442719
vn 0 1 0.01442719
vn 1 0 0.01442719
vn 1 0 0.01442719
vn 1 0 0.01442719
vn 1 0 0.01442719
vn 1 0 0
vn 1 0 0
vn 1 0 0
vn 1 0 0
vn 1 0 0.01442719
vn 1 0 0.01442719
vn 1 0 0.01442719
vn 1 0 0.01442719
vn 0 -1 0.01442719
vn 0 -1 0.01442719
vn 0 -1 0.01442719
vn 0 -1 0.01442719
vn 0 -1 0
vn 0 -1 0
vn 0 -1 0
vn 0 -1 0
vn 0 -1 0.01442719
vn 0 -1 0.01442719
vn 0 -1 0.01442719
vn 0 -1 0.01442719
vn 0 0 -1
vn 0 0 -1
vn 0 0 -1
vn 0 0 -1
vn 0 0 -1
vn 0 0 -1
vn 0 0 -1
vn 0 0 -1
vn 0 0 -1
vn 0 0 -1
vn 0 0 -1
vn 0 0 -1
vn 0 0 -1
vn 0 0 -1
vn 0 0 -1
vn 0 0 -1
vn 0 0 -1
vn 0 0 -1
vn 0 0 -1
vn 0 0 -1
vn 0 0 -1
vn 0 0 -1
vn 0 0 -1
vn 0 0 -1
vn 1 0 0.01442719
vn 1 0 0.01442719
vn 1 0 0.01442719
vn 1 0 0.01442719
vn 1 0 0
vn 1 0 0
vn 1 0 0
vn 1 0 0.01442719
vn 1 0 0
vn 1 0 0.01442719
vn 1 0 0.01442719
vn 1 0 0.01442719
vn -1 0 0.01442719
vn -1 0 0.01442719
vn -1 0 0.01442719
vn -1 0 0.01442719
vn -1 0 0
vn -1 0 0
vn -1 0 0
vn -1 0 0
vn -1 0 0.01442719
vn -1 0 0.01442719
vn -1 0 0.01442719
vn -1 0 0.01442719
vn 0 0 -1
vn 0 0 -1
vn 0 0 -1
vn 0 0 -1
vn 0 -1 0.01442719
vn 0 -1 0.01442719
vn 0 -1 0.01442719
vn 0 -1 0.01442719
vn 0 -1 0
vn 0 -1 0
vn 0 -1 0
vn 0 -1 0.01442719
vn 0 -1 0
vn 0 -1 0.01442719
vn 0 -1 0.01442719
vn 0 -1 0.01442719
vn 0 1 0.01442719
vn 0 1 0.01442719
vn 0 1 0.01442719
vn 0 1 0.01442719
vn 0 1 0
vn 0 1 0
vn 0 1 0
vn 0 1 0
vn 0 1 0.01442719
vn 0 1 0.01442719
vn 0 1 0.01442719
vn 0 1 0.01442719
vn 0 0 -1
vn 0 0 -1
vn 0 0 -1
vn 0 0 -1
vn 0 0 -1
vn 0 0 -1
vn 0 0 -1
vn 0 0 -1
vn -1 0 0
vn -1 0 0
vn -1 0 0
vn -1 0 0
vn -1 0 0
vn -1 0 0
vn 0 -1 0
vn 0 -1 0
vn 0 -1 0
vn 0 -1 0
vn 0 -1 0
vn 0 -1 0
vn 1 0 0
vn 1 0 0
vn 1 0 0
vn 1 0 0
vn 1 0 0
vn 1 0 0
vn 0 1 0
vn 0 1 0
vn 0 1 0
vn 0 1 0
vn 0 1 0
vn 0 1 0
vn 0 0 1
vn 0 0 1
vn 0 0 1
vn 0 0 1
vn 0 0 1
vn 0 0 1
vn 0 0 1
vn 0 0 1
vn 0 0 1
vn 0 0 -1
vn 0 0 -1
vn 0 0 -1
vn 0 0 -1
vn 0 0 -1
vn 0 0 -1
vn 0 0 -1
vn 0 0 -1
vn 0 0 -1
vn 0 0 -1
vn 0 0 -1
vn 0 0 -1
vn 0 0 -1
vn 0 0 -1
vn 0 0 -1
vn 0 0 -1
vn 0 0 -1
vn 0 0 -1
vn 0 0 -1
vn 0 0 -1
vn 0 0 -1
vn 0 0 -1
vn 0 0 -1
vn 0 0 -1
vn 0 0 -1
g Table_0
f 3/3/3 2/2/2 1/1/1
f 4/4/4 3/3/3 1/1/1
f 1/1/1 5/5/5 4/4/4
f 5/5/5 6/6/6 4/4/4
f 6/6/6 7/7/7 4/4/4
f 7/7/7 6/6/6 8/8/8
f 6/6/6 9/9/9 8/8/8
f 9/9/9 10/10/10 8/8/8
f 11/11/11 8/8/8 10/10/10
f 12/12/12 11/11/11 10/10/10
f 15/15/15 14/14/14 13/13/13
f 16/16/16 15/15/15 13/13/13
f 18/18/18 17/17/17 16/16/16
f 17/17/17 19/19/19 16/16/16
f 19/19/19 17/17/17 20/20/20
f 17/17/17 21/21/21 20/20/20
f 23/23/23 20/20/20 22/22/22
f 24/24/24 23/23/23 22/22/22
f 27/27/27 26/26/26 25/25/25
f 28/28/28 27/27/27 25/25/25
f 25/25/25 30/30/30 29/29/29
f 30/30/30 31/31/31 29/29/29
f 31/31/31 30/30/30 32/32/32
f 30/30/30 33/33/33 32/32/32
f 35/35/35 34/34/34 33/33/33
f 36/36/36 35/35/35 33/33/33
f 39/39/39 38/38/38 37/37/37
f 40/40/40 39/39/39 37/37/37
f 37/37/37 41/41/41 40/40/40
f 37/37/37 42/42/42 41/41/41
f 42/42/42 43/43/43 41/41/41
f 43/43/43 42/42/42 44/44/44
f 42/42/42 45/45/45 44/44/44
f 44/44/44 45/45/45 46/46/46
f 47/47/47 46/46/46 45/45/45
f 48/48/48 47/47/47 45/45/45
f 51/51/51 50/50/50 49/49/49
f 52/52/52 51/51/51 49/49/49
f 55/55/55 54/54/54 53/53/53
f 54/54/54 56/56/56 53/53/53
f 56/56/56 54/54/54 57/57/57
f 54/54/54 58/58/58 57/57/57
f 53/53/53 60/60/60 59/59/59
f 60/60/60 61/61/61 59/59/59
f 61/61/61 60/60/60 62/62/62
f 60/60/60 63/63/63 62/62/62
f 65/65/65 57/57/57 64/64/64
f 66/66/66 65/65/65 64/64/64
f 65/65/65 66/66/66 67/67/67
f 68/68/68 65/65/65 67/67/67
f 70/70/70 69/69/69 63/63/63
f 71/71/71 70/70/70 68/68/68
f 72/72/72 70/70/70 63/63/63
f 70/70/70 72/72/72 68/68/68
f 75/75/75 74/74/74 73/73/73
f 74/74/74 76/76/76 73/73/73
f 77/77/77 73/73/73 76/76/76
f 78/78/78 77/77/77 76/76/76
f 79/79/79 78/78/78 76/76/76
f 78/78/78 79/79/79 80/80/80
f 81/81/81 78/78/78 80/80/80
f 82/82/82 81/81/81 80/80/80
f 80/80/80 83/83/83 82/82/82
f 83/83/83 84/84/84 82/82/82
f 87/87/87 86/86/86 85/85/85
f 88/88/88 87/87/87 85/85/85
f 90/90/90 85/85/85 89/89/89
f 91/91/91 90/90/90 89/89/89
f 90/90/90 91/91/91 92/92/92
f 93/93/93 90/90/90 92/92/92
f 95/95/95 94/94/94 93/93/93
f 96/96/96 95/95/95 93/93/93
f 99/99/99 98/98/98 97/97/97
f 100/100/100 99/99/99 97/97/97
f 103/103/103 102/102/102 101/101/101
f 102/102/102 104/104/104 101/101/101
f 106/106/106 105/105/105 104/104/104
f 107/107/107 106/106/106 104/104/104
f 106/106/106 107/107/107 108/108/108
f 109/109/109 106/106/106 108/108/108
f 108/108/108 111/111/111 110/110/110
f 111/111/111 112/112/112 110/110/110
f 115/115/115 114/114/114 113/113/113
f 114/114/114 116/116/116 113/113/113
f 117/117/117 113/113/113 116/116/116
f 118/118/118 113/113/113 117/117/117
f 119/119/119 118/118/118 117/117/117
f 118/118/118 119/119/119 120/120/120
f 121/121/121 118/118/118 120/120/120
f 121/121/121 120/120/120 122/122/122
f 122/122/122 123/123/123 121/121/121
f 123/123/123 124/124/124 121/121/121
f 127/127/127 126/126/126 125/125/125
f 128/128/128 127/127/127 125/125/125
f 131/131/131 130/130/130 129/129/129
f 132/132/132 131/131/131 129/129/129
g Table_1
f 135/135/135 134/134/134 133/133/133
f 134/134/134 136/136/136 133/133/133
f 136/136/136 137/137/137 133/133/133
f 137/137/137 138/138/138 133/133/133
f 141/141/141 140/140/140 139/139/139
f 142/142/142 141/141/141 139/139/139
f 141/141/141 142/142/142 143/143/143
f 144/144/144 141/141/141 143/143/143
f 147/147/147 146/146/146 145/145/145
f 148/148/148 147/147/147 145/145/145
f 149/149/149 148/148/148 145/145/145
f 150/150/150 149/149/149 145/145/145
f 153/153/153 152/152/152 151/151/151
f 152/152/152 154/154/154 151/151/151
f 154/154/154 152/152/152 155/155/155
f 152/152/152 156/156/156 155/155/155
f 159/159/159 158/158/158 157/157/157
f 157/157/157 158/158/158 160/160/160
f 158/158/158 159/159/159 161/161/161
f 158/158/158 162/162/162 160/160/160
f 158/158/158 161/161/161 163/163/163
f 158/158/158 164/164/164 162/162/162
f 165/165/165 158/158/158 163/163/163
f 164/164/164 158/158/158 165/165/165
f 168/168/168 167/167/167 166/166/166
f 167/167/167 168/168/168 169/169/169
f 167/167/167 170/170/170 166/166/166
f 171/171/171 167/167/167 169/169/169
f 166/166/166 170/170/170 172/172/172
f 170/170/170 173/173/173 172/172/172
f 173/173/173 174/174/174 172/172/172
f 174/174/174 175/175/175 172/172/172
f 171/171/171 169/169/169 176/176/176
f 177/177/177 171/171/171 176/176/176
f 178/178/178 177/177/177 176/176/176
f 179/179/179 178/178/178 176/176/176
f 174/174/174 180/180/180 175/175/175
f 180/180/180 178/178/178 179/179/179
f 180/180/180 181/181/181 175/175/175
f 181/181/181 180/180/180 179/179/179
f 184/184/184 183/183/183 182/182/182
f 183/183/183 185/185/185 182/182/182
f 186/186/186 183/183/183 184/184/184
f 183/183/183 187/187/187 185/185/185
f 183/183/183 186/186/186 188/188/188
f 187/187/187 183/183/183 189/189/189
f 183/183/183 188/188/188 190/190/190
f 189/189/189 183/183/183 190/190/190
