g Cushion
v -0.008777457 -0.008888309 -0.001109111
v -0.01550995 -0.006894922 -0.003629619
v -0.01741767 -0.008742865 -0.001132114
v -0.008777457 -0.006505595 -0.004485065
v 0.0005093764 -0.007087441 -0.004515459
v 0.0005093764 -0.009470151 -0.001139503
v 0.01032059 -0.009470151 -0.001139503
v 0.01032059 -0.007087441 -0.004515459
v 0.01728797 -0.006623619 -0.003587072
v 0.01926403 -0.008398326 -0.001089565
v -0.008777457 -0.008888309 -0.001109111
v -0.01741767 -0.008742865 -0.001132114
v -0.01550995 -0.007106238 0.001499794
v -0.008777457 -0.00679086 0.00243965
v 0.0005093764 -0.007372702 0.002409257
v 0.0005093764 -0.009470151 -0.001139503
v 0.01032059 -0.009470151 -0.001139503
v 0.01032059 -0.007372702 0.002409257
v 0.01729593 -0.00683478 0.001542341
v 0.01926403 -0.008398326 -0.001089565
v 0.01845065 0.003886005 0.0006324094
v 0.01890254 0.009927087 0.003571097
v 0.0169948 0.009390967 0.0005185406
v 0.01599785 0.005310516 -0.00252655
v 0.01586363 -0.0009632712 -0.004102124
v 0.01032059 0.004754598 -0.004058075
v 0.01824346 -0.001288333 -0.0007936211
v 0.0169948 0.009390967 0.0005185406
v 0.01728797 -0.006623619 -0.003587072
v 0.01926403 -0.008398326 -0.001089565
v 0.01032059 -0.00139884 -0.005267671
v 0.01728797 -0.006623619 -0.003587072
v 0.01032059 -0.007087441 -0.004515459
v 0.0005093764 -0.007087441 -0.004515459
v 0.0005093764 -0.00139884 -0.005267671
v -0.00921822 -0.001306061 -0.005262823
v -0.009301837 0.004754598 -0.004058075
v -0.008777457 -0.006505595 -0.004485065
v -0.01550995 -0.006894922 -0.003629619
v -0.01403679 -0.001294617 -0.004150398
v -0.01691407 -0.0019929 -0.0008567173
v -0.01741767 -0.008742865 -0.001132114
v -0.01684348 0.003370628 0.0003931455
v -0.01439068 0.004795138 -0.002765813
v -0.01609258 0.009602354 0.0006166808
v -0.01800032 0.01013848 0.003669233
v -0.01609258 0.009602354 0.0006166808
v 0.0005093764 0.004754598 -0.004058075
v -0.000422845 0.009713368 -0.0003484352
v -0.009301837 0.01003044 -0.0002012285
v -0.009301837 0.01065191 0.003873914
v -0.01800032 0.01013848 0.003669233
v -0.000422845 0.01033483 0.003726708
v 0.01032059 0.01065191 0.003873914
v 0.01032059 0.01003044 -0.0002012285
v 0.01890254 0.009927087 0.003571097
v 0.01824346 -0.001288333 -0.0007936211
v 0.01926403 -0.008398326 -0.001089565
v 0.01729593 -0.00683478 0.001542341
v 0.01587394 -0.001236549 0.002536311
v 0.01845065 0.003886005 0.0006324094
v 0.01599785 0.002461484 0.003791367
v 0.01032059 0.0009558958 0.004365817
v 0.0169948 0.007280573 0.005198482
v 0.01890254 0.009927087 0.003571097
v 0.0169948 0.007280573 0.005198482
v 0.01032059 0.007181417 0.006116685
v -0.000422845 0.006864341 0.005969489
v 0.01032059 -0.001764029 0.003597211
v 0.01729593 -0.00683478 0.001542341
v 0.01032059 -0.007372702 0.002409257
v 0.0005093764 -0.007372702 0.002409257
v 0.0005093764 -0.001764029 0.003597211
v 0.0005093764 0.0009558958 0.004365817
v -0.009301837 0.0009558958 0.004365817
v -0.009301837 0.007181414 0.006116695
v -0.01609258 0.00749196 0.005296622
v -0.01439068 0.001946117 0.003552099
v -0.00921822 -0.001671253 0.00360206
v -0.008777457 -0.00679086 0.00243965
v -0.01550995 -0.007106238 0.001499794
v -0.01403679 -0.001568088 0.002488033
v -0.01691407 -0.0019929 -0.0008567173
v -0.01741767 -0.008742865 -0.001132114
v -0.01684348 0.003370628 0.0003931455
v -0.01609258 0.00749196 0.005296622
v -0.01800032 0.01013848 0.003669233
v 0.01032059 0.01065191 0.003873914
v 0.01890254 0.009927087 0.003571097
v 0.0169948 0.007280573 0.005198482
v 0.01032059 0.007181417 0.006116685
v -0.000422845 0.006864341 0.005969489
v -0.000422845 0.01033483 0.003726708
v -0.009301837 0.01065191 0.003873914
v -0.009301837 0.007181414 0.006116695
v -0.01609258 0.00749196 0.005296622
v -0.01800032 0.01013848 0.003669233
vn -0.03625488 -0.8125 -0.5820313
vn -0.01904297 -0.8081055 -0.5883789
vn -0.01904297 -0.8081055 -0.5883789
vn -0.03662109 -0.8125 -0.5820313
vn -0.02679443 -0.8168945 -0.5766602
vn -0.02622986 -0.8168945 -0.5766602
vn 0.05557251 -0.8066406 -0.5888672
vn 0.05548096 -0.8066406 -0.5888672
vn 0.1133423 -0.7924805 -0.5991211
vn 0.1133423 -0.7924805 -0.5991211
vn -0.03793335 -0.8564453 0.5151367
vn -0.02328491 -0.8525391 0.5224609
vn -0.02328491 -0.8525391 0.5224609
vn -0.03826904 -0.8564453 0.5151367
vn -0.02639771 -0.8603516 0.5087891
vn -0.02581787 -0.8603516 0.5087891
vn 0.05499268 -0.8515625 0.5214844
vn 0.05496216 -0.8515625 0.5214844
vn 0.1121826 -0.8388672 0.5327148
vn 0.1121826 -0.8388672 0.5327148
vn 0.8134766 0.1646729 -0.5581055
vn 0.8149414 0.2042236 -0.5424805
vn 0.8149414 0.2042236 -0.5424805
vn 0.5019531 0.3376465 -0.7963867
vn 0.5029297 0.1011353 -0.8583984
vn 0.09240723 0.3933105 -0.9145508
vn 0.8134766 0.1361084 -0.5654297
vn 0.1231689 0.8823242 -0.4538574
vn 0.815918 0.1466064 -0.559082
vn 0.815918 0.1466064 -0.559082
vn 0.09539795 0.04290771 -0.9946289
vn 0.1706543 -0.0881958 -0.9814453
vn 0.08428955 -0.1104126 -0.9902344
vn -0.003322601 -0.1351318 -0.9907227
vn -0.001558304 0.02896118 -0.9995117
vn -0.1021729 0.0380249 -0.9941406
vn -0.09997559 0.3898926 -0.9155273
vn -0.08190918 -0.1221313 -0.9892578
vn -0.6132813 0.04153442 -0.7890625
vn -0.4858398 0.07897949 -0.8706055
vn -0.7875977 0.1173706 -0.6049805
vn -0.7900391 0.1144409 -0.6025391
vn -0.8027344 0.119812 -0.5844727
vn -0.4990234 0.3037109 -0.8115234
vn -0.8208008 0.1189575 -0.559082
vn -0.8208008 0.1189575 -0.559082
vn -0.1094971 0.8911133 -0.4406738
vn 8.85129E-05 0.4038086 -0.9150391
vn 0.001775742 0.8525391 -0.5229492
vn -0.05249023 0.8452148 -0.5322266
vn -0.01681519 0.9863281 -0.1641846
vn -0.06671143 0.9819336 -0.1773682
vn 0.002880096 0.9887695 -0.1507568
vn 0.03219604 0.9853516 -0.1673584
vn 0.05664063 0.8481445 -0.5268555
vn 0.0925293 0.9785156 -0.1837158
vn 0.8212891 -0.0335083 0.5693359
vn 0.8173828 0.0994873 0.5678711
vn 0.8173828 0.0994873 0.5678711
vn 0.5229492 -0.1710205 0.8349609
vn 0.8144531 -0.2546387 0.5214844
vn 0.5141602 -0.2915039 0.8066406
vn 0.08642578 -0.2819824 0.9555664
vn 0.8188477 -0.3041992 0.4870605
vn 0.8188477 -0.3041992 0.4870605
vn 0.1513672 -0.2844238 0.9467773
vn 0.07476807 -0.2763672 0.9580078
vn 0.0004253387 -0.2663574 0.9638672
vn 0.08898926 -0.2369385 0.9672852
vn 0.1639404 -0.168457 0.972168
vn 0.08093262 -0.1888428 0.9785156
vn -0.002836227 -0.2106934 0.9775391
vn -0.001723289 -0.2423096 0.9702148
vn -0.000336647 -0.2700195 0.9628906
vn -0.09606934 -0.2854004 0.9536133
vn -0.08123779 -0.2856445 0.9550781
vn -0.1622314 -0.3024902 0.9394531
vn -0.5131836 -0.3037109 0.8027344
vn -0.09954834 -0.2419434 0.965332
vn -0.08392334 -0.1982422 0.9765625
vn -0.6142578 -0.02223206 0.7885742
vn -0.4975586 -0.1761475 0.8496094
vn -0.7890625 -0.04116821 0.6132813
vn -0.7895508 0.06433105 0.6098633
vn -0.8061523 -0.2844238 0.519043
vn -0.8217773 -0.3681641 0.4353027
vn -0.8217773 -0.3681641 0.4353027
vn 0.03033447 0.5288086 0.8481445
vn 0.08935547 0.5126953 0.8540039
vn 0.08935547 0.5126953 0.8540039
vn 0.02900696 0.5288086 0.8481445
vn 0.002851486 0.5429688 0.8398438
vn 0.002922058 0.5429688 0.8398438
vn -0.0147171 0.5317383 0.8466797
vn -0.01300049 0.5322266 0.8466797
vn -0.06317139 0.5195313 0.8520508
vn -0.06317139 0.5195313 0.8520508
g Cushion_0
f 3/3/3 2/2/2 1/1/1
f 2/2/2 4/4/4 1/1/1
f 4/4/4 5/5/5 1/1/1
f 5/5/5 6/6/6 1/1/1
f 6/6/6 5/5/5 7/7/7
f 5/5/5 8/8/8 7/7/7
f 8/8/8 9/9/9 7/7/7
f 9/9/9 10/10/10 7/7/7
f 13/13/13 12/12/12 11/11/11
f 14/14/14 13/13/13 11/11/11
f 15/15/15 14/14/14 11/11/11
f 16/16/16 15/15/15 11/11/11
f 15/15/15 16/16/16 17/17/17
f 18/18/18 15/15/15 17/17/17
f 19/19/19 18/18/18 17/17/17
f 20/20/20 19/19/19 17/17/17
f 23/23/23 22/22/22 21/21/21
f 24/24/24 23/23/23 21/21/21
f 25/25/25 24/24/24 21/21/21
f 24/24/24 25/25/25 26/26/26
f 27/27/27 25/25/25 21/21/21
f 28/28/28 24/24/24 26/26/26
f 29/29/29 25/25/25 27/27/27
f 30/30/30 29/29/29 27/27/27
f 25/25/25 31/31/31 26/26/26
f 25/25/25 32/32/32 31/31/31
f 32/32/32 33/33/33 31/31/31
f 33/33/33 34/34/34 31/31/31
f 34/34/34 35/35/35 31/31/31
f 31/31/31 35/35/35 26/26/26
f 35/35/35 34/34/34 36/36/36
f 35/35/35 36/36/36 37/37/37
f 34/34/34 38/38/38 36/36/36
f 38/38/38 39/39/39 36/36/36
f 39/39/39 40/40/40 36/36/36
f 36/36/36 40/40/40 37/37/37
f 40/40/40 39/39/39 41/41/41
f 39/39/39 42/42/42 41/41/41
f 40/40/40 41/41/41 43/43/43
f 44/44/44 40/40/40 43/43/43
f 40/40/40 44/44/44 37/37/37
f 45/45/45 44/44/44 43/43/43
f 46/46/46 45/45/45 43/43/43
f 44/44/44 47/47/47 37/37/37
f 35/35/35 48/48/48 26/26/26
f 48/48/48 35/35/35 37/37/37
f 48/48/48 49/49/49 26/26/26
f 49/49/49 48/48/48 37/37/37
f 47/47/47 50/50/50 37/37/37
f 50/50/50 49/49/49 37/37/37
f 50/50/50 47/47/47 51/51/51
f 49/49/49 50/50/50 51/51/51
f 47/47/47 52/52/52 51/51/51
f 53/53/53 49/49/49 51/51/51
f 49/49/49 53/53/53 54/54/54
f 49/49/49 55/55/55 26/26/26
f 55/55/55 49/49/49 54/54/54
f 55/55/55 28/28/28 26/26/26
f 28/28/28 55/55/55 54/54/54
f 56/56/56 28/28/28 54/54/54
f 59/59/59 58/58/58 57/57/57
f 60/60/60 59/59/59 57/57/57
f 60/60/60 57/57/57 61/61/61
f 62/62/62 60/60/60 61/61/61
f 60/60/60 62/62/62 63/63/63
f 64/64/64 62/62/62 61/61/61
f 65/65/65 64/64/64 61/61/61
f 62/62/62 66/66/66 63/63/63
f 66/66/66 67/67/67 63/63/63
f 67/67/67 68/68/68 63/63/63
f 69/69/69 60/60/60 63/63/63
f 70/70/70 60/60/60 69/69/69
f 71/71/71 70/70/70 69/69/69
f 72/72/72 71/71/71 69/69/69
f 73/73/73 69/69/69 63/63/63
f 73/73/73 72/72/72 69/69/69
f 68/68/68 74/74/74 63/63/63
f 74/74/74 73/73/73 63/63/63
f 74/74/74 68/68/68 75/75/75
f 73/73/73 74/74/74 75/75/75
f 68/68/68 76/76/76 75/75/75
f 76/76/76 77/77/77 75/75/75
f 77/77/77 78/78/78 75/75/75
f 72/72/72 73/73/73 79/79/79
f 79/79/79 73/73/73 75/75/75
f 80/80/80 72/72/72 79/79/79
f 81/81/81 80/80/80 79/79/79
f 82/82/82 79/79/79 75/75/75
f 78/78/78 82/82/82 75/75/75
f 82/82/82 81/81/81 79/79/79
f 81/81/81 82/82/82 83/83/83
f 84/84/84 81/81/81 83/83/83
f 83/83/83 82/82/82 85/85/85
f 82/82/82 78/78/78 85/85/85
f 78/78/78 86/86/86 85/85/85
f 86/86/86 87/87/87 85/85/85
f 90/90/90 89/89/89 88/88/88
f 91/91/91 90/90/90 88/88/88
f 92/92/92 91/91/91 88/88/88
f 93/93/93 92/92/92 88/88/88
f 92/92/92 93/93/93 94/94/94
f 95/95/95 92/92/92 94/94/94
f 96/96/96 95/95/95 94/94/94
f 97/97/97 96/96/96 94/94/94
