g FX_Money_Note_01
v -0.1207874 0 0.05570137
v -0.1207874 0.003694181 0.05570137
v 0.01597195 0.003694181 0.05570137
v 0.01597195 0 0.05570137
v 0.06570404 0.01633438 0.05570137
v 0.06360218 0.01937223 0.05570137
v 0.1024625 0.05699353 0.05570137
v 0.09925628 0.05882851 0.05570137
v -0.1207874 0.003694181 0.05570137
v -0.1207874 0.003694181 -0.05570091
v 0.01597195 0.003694181 -0.05570091
v 0.01597195 0.003694181 0.05570137
v -0.1207874 0.003694181 -0.05570091
v -0.1207874 0 -0.05570091
v 0.01597195 0 -0.05570091
v 0.01597195 0.003694181 -0.05570091
v 0.07379707 0.01035266 -0.05288254
v 0.07169411 0.0133905 -0.05288254
v 0.1207874 0.04564658 -0.05500305
v 0.1175811 0.04748157 -0.05500305
v -0.1207874 0 -0.05570091
v -0.1207874 0 0.05570137
v 0.01597195 0 0.05570137
v 0.01597195 0 -0.05570091
v 0.1024625 0.05699353 0.05570137
v 0.09925628 0.05882851 0.05570137
v 0.1175811 0.04748157 -0.05500305
v 0.1207874 0.04564658 -0.05500305
v -0.1207874 0 -0.05570091
v -0.1207874 0.003694181 -0.05570091
v -0.1207874 0.003694181 0.05570137
v -0.1207874 0 0.05570137
v 0.01597195 0 0.05570137
v 0.06570404 0.01633438 0.05570137
v 0.07379707 0.01035266 -0.05288254
v 0.01597195 0 -0.05570091
v 0.01597195 0.003694181 -0.05570091
v 0.07169411 0.0133905 -0.05288254
v 0.06360218 0.01937223 0.05570137
v 0.01597195 0.003694181 0.05570137
v 0.06570404 0.01633438 0.05570137
v 0.1024625 0.05699353 0.05570137
v 0.1207874 0.04564658 -0.05500305
v 0.07379707 0.01035266 -0.05288254
v 0.07169411 0.0133905 -0.05288254
v 0.1175811 0.04748157 -0.05500305
v 0.09925628 0.05882851 0.05570137
v 0.06360218 0.01937223 0.05570137
vt 0.2795395 0.05922723
vt 0.25613 0.05922723
vt 0.25613 0.05922723
vt 0.2795395 0.05922723
vt 0.2795395 0.05922712
vt 0.25613 0.05922723
vt 0.2795395 0.05922712
vt 0.25613 0.05922723
vt 0.04481412 0.02582341
vt 0.04481412 0.101219
vt 0.1215231 0.101219
vt 0.1215231 0.02582341
vt 0.2561299 0.05922723
vt 0.2795395 0.05922723
vt 0.2795395 0.05922723
vt 0.2561299 0.05922723
vt 0.2795395 0.05922723
vt 0.2561299 0.05922723
vt 0.2795395 0.05922723
vt 0.2561299 0.05922723
vt 0.04481412 0.1834097
vt 0.04481412 0.1080141
vt 0.1215231 0.1080141
vt 0.1215231 0.1834097
vt 0.2795395 0.05922712
vt 0.25613 0.05922723
vt 0.2561299 0.05922723
vt 0.2795395 0.05922723
vt 0.2795395 0.05922723
vt 0.2561299 0.05922723
vt 0.25613 0.05922723
vt 0.2795395 0.05922723
vt 0.1215231 0.1080141
vt 0.1598776 0.1080141
vt 0.1598776 0.1834097
vt 0.1215231 0.1834097
vt 0.1215231 0.101219
vt 0.1598776 0.101219
vt 0.1598776 0.02582341
vt 0.1215231 0.02582341
vt 0.1598776 0.1080141
vt 0.1982321 0.1080141
vt 0.1982321 0.1834097
vt 0.1598776 0.1834097
vt 0.1598776 0.101219
vt 0.1982321 0.101219
vt 0.1982321 0.02582341
vt 0.1598776 0.02582341
vn 0 0 1
vn 0 0 1
vn 0 0 1
vn 0 0 1
vn 0 0 1
vn 0 0 1
vn 0 0 1
vn 0 0 1
vn 0 1 0
vn 0 1 0
vn 0 1 0
vn 0 1 0
vn 0 0 -1
vn 0 0 -1
vn 0.01230348 0.003843394 -0.9999169
vn 0.01443828 0.004510267 -0.9998856
vn 0.005371625 -0.009610613 -0.9999394
vn 0.01461575 -0.004218099 -0.9998842
vn -0.02515553 -0.02740811 -0.9993078
vn -0.02515553 -0.02740811 -0.9993078
vn 0 -1 0
vn 0 -1 0
vn 0 -1 0
vn 0 -1 0
vn 0.4967132 0.8678886 -0.006735755
vn 0.4967131 0.8678886 -0.006735755
vn 0.4967131 0.8678886 -0.006735755
vn 0.4967131 0.8678886 -0.006735755
vn -1 0 0
vn -1 0 0
vn -1 0 0
vn -1 0 0
vn 0.2397991 -0.970184 0.03520253
vn 0.2397991 -0.970184 0.03520254
vn 0.2397991 -0.970184 0.03520254
vn 0.2397991 -0.970184 0.03520254
vn -0.2373817 0.9707811 -0.03512868
vn -0.2373816 0.9707811 -0.03512868
vn -0.2373816 0.9707811 -0.03512868
vn -0.2373816 0.9707811 -0.03512868
vn 0.6672602 -0.7318872 0.1382211
vn 0.6672602 -0.7318871 0.1382211
vn 0.6672602 -0.7318871 0.1382211
vn 0.6672602 -0.7318871 0.1382211
vn -0.6653293 0.733661 -0.1381251
vn -0.6653293 0.733661 -0.1381251
vn -0.6653293 0.733661 -0.1381251
vn -0.6653293 0.733661 -0.1381251
g FX_Money_Note_01_0
f 3/3/3 2/2/2 1/1/1
f 4/4/4 3/3/3 1/1/1
f 4/4/4 5/5/5 3/3/3
f 5/5/5 6/6/6 3/3/3
f 5/5/5 7/7/7 6/6/6
f 7/7/7 8/8/8 6/6/6
f 11/11/11 10/10/10 9/9/9
f 12/12/12 11/11/11 9/9/9
f 15/15/15 14/14/14 13/13/13
f 16/16/16 15/15/15 13/13/13
f 17/17/17 15/15/15 16/16/16
f 18/18/18 17/17/17 16/16/16
f 19/19/19 17/17/17 18/18/18
f 20/20/20 19/19/19 18/18/18
f 23/23/23 22/22/22 21/21/21
f 24/24/24 23/23/23 21/21/21
f 27/27/27 26/26/26 25/25/25
f 28/28/28 27/27/27 25/25/25
f 31/31/31 30/30/30 29/29/29
f 32/32/32 31/31/31 29/29/29
f 35/35/35 34/34/34 33/33/33
f 36/36/36 35/35/35 33/33/33
f 39/39/39 38/38/38 37/37/37
f 40/40/40 39/39/39 37/37/37
f 43/43/43 42/42/42 41/41/41
f 44/44/44 43/43/43 41/41/41
f 47/47/47 46/46/46 45/45/45
f 48/48/48 47/47/47 45/45/45
