g Salmon
v -0.006926163 0.0001335689 -0.002655669
v -0.006926163 0.004271565 -0.002655669
v -0.01045801 0.002865625 -0.002655669
v -0.01045801 0.0001333481 -0.002655669
v -0.006926163 -0.004005109 -0.002655669
v -0.01045801 -0.002598929 -0.002655669
v -0.002777972 1.823547E-05 -0.002655669
v -0.005934215 -0.004300306 -0.002655669
v -0.002734921 -0.004682228 -0.002655669
v -0.005934215 0.0001342164 -0.002655669
v -0.002821023 0.004752556 -0.002655669
v -0.005934215 0.004566081 -0.002655669
v 0.007089722 0.0001959912 -0.002655669
v 0.007314955 -0.003436581 -0.002655669
v 0.01045801 -0.001550508 -0.002655669
v 0.01033527 0.000518875 -0.002655669
v 0.00686449 0.003828563 -0.002655669
v 0.01021252 0.002588258 -0.002655669
v -0.00686009 0.003752372 0.0002610689
v -0.006774631 0.002142019 0.001605443
v -0.009417779 0.001440978 0.0001761301
v -0.01005184 0.002509575 -0.001576618
v 0.0095212 0.0004700141 -0.001254519
v 0.008226466 0.001313747 0.000148395
v 0.009405697 0.002269731 -0.001296045
v 0.00833583 0.0003233694 0.0001877133
v 0.009636705 -0.001329703 -0.001212993
v 0.00844519 -0.0006670086 0.0002270316
v 0.005362919 0.004162674 -0.002655669
v 0.004457484 0.003451898 0.0007316596
v 0.002098758 0.003737104 0.001101106
v 0.002098758 0.004223246 -0.002655669
v -0.01045801 0.0001333481 -0.002655669
v -0.01005184 -0.002242879 -0.001576618
v -0.01045801 -0.002598929 -0.002655669
v -0.01005184 0.0001333481 -0.001576618
v -0.01045801 0.002865625 -0.002655669
v -0.009417779 -0.001174281 0.0001761301
v -0.01005184 0.002509575 -0.001576618
v -0.009417779 0.0001333481 0.0001761301
v -0.009417779 0.001440978 0.0001761301
v 0.01033527 0.000518875 -0.002655669
v 0.009405697 0.002269731 -0.001296045
v 0.01021252 0.002588258 -0.002655669
v 0.0095212 0.0004700141 -0.001254519
v 0.01045801 -0.001550508 -0.002655669
v 0.009636705 -0.001329703 -0.001212993
v -0.006926163 0.004271565 -0.002655669
v -0.00686009 0.003752372 0.0002610689
v -0.01005184 0.002509575 -0.001576618
v -0.01045801 0.002865625 -0.002655669
v -0.002821023 0.004752556 -0.002655669
v -0.002821023 0.004247778 0.0008350349
v -0.005934215 0.004030824 0.0006180766
v -0.005934215 0.004566081 -0.002655669
v 0.007314955 -0.003436581 -0.002655669
v 0.006139243 -0.002900172 0.0006213784
v 0.009636705 -0.001329703 -0.001212993
v 0.01045801 -0.001550508 -0.002655669
v 0.01021252 0.002588258 -0.002655669
v 0.009405697 0.002269731 -0.001296045
v 0.005688779 0.003244149 0.0006213784
v 0.00686449 0.003828563 -0.002655669
v -0.007925421 0.0001335266 0.001605443
v -0.009417779 0.0001333481 0.0001761301
v -0.009417779 0.001440978 0.0001761301
v -0.006774631 0.002142019 0.001605443
v -0.00406035 7.757341E-05 0.002531791
v -0.002773907 -0.002275886 0.002531791
v -0.005818557 -0.002039471 0.001883116
v -0.007048775 0.0001340157 0.001883116
v 0.003992531 0.0001522625 0.001880469
v 0.00833583 0.0003233694 0.0001877133
v 0.00844519 -0.0006670086 0.0002270316
v 0.004926907 -0.001515295 0.001880469
v -0.002821023 0.004247778 0.0008350349
v -0.002855432 0.002426901 0.002531791
v -0.005818557 0.002308327 0.001883116
v -0.005934215 0.004030824 0.0006180766
v 0.006139243 -0.002900172 0.0006213784
v 0.004926907 -0.001515295 0.001880469
v 0.00844519 -0.0006670086 0.0002270316
v 0.009636705 -0.001329703 -0.001212993
v 0.009405697 0.002269731 -0.001296045
v 0.008226466 0.001313747 0.000148395
v 0.004500393 0.00181982 0.001880469
v 0.005688779 0.003244149 0.0006213784
v 0.004457484 0.003451898 0.0007316596
v 0.003444036 0.001906805 0.00215016
v 0.001583332 0.002101811 0.002641685
v 0.002098758 0.003737104 0.001101106
v -0.01005184 -0.002242879 -0.001576618
v -0.009417779 -0.001174281 0.0001761301
v -0.006774631 -0.001874393 0.001605443
v -0.00686009 -0.00348611 0.0002610689
v -0.01045801 -0.002598929 -0.002655669
v -0.01005184 -0.002242879 -0.001576618
v -0.00686009 -0.00348611 0.0002610689
v -0.006926163 -0.004005109 -0.002655669
v -0.001740062 -0.004752556 -0.002655669
v -0.001740062 -0.004223468 0.0009025009
v 0.001069527 -0.004076416 0.001016243
v 0.001069527 -0.004608873 -0.002655669
v -0.001740062 -0.004223468 0.0009025009
v -0.001851232 -0.002309508 0.002584265
v 0.0006619855 -0.002220113 0.002655669
v 0.001069527 -0.004076416 0.001016243
v 0.002320928 -0.003997346 0.001101106
v 0.00179369 -0.00218227 0.002641685
v 0.003820859 -0.001721855 0.00215016
v 0.004855467 -0.003300483 0.0007316596
v 0.0006622593 -4.261107E-05 0.002641685
v 0.00282095 9.24752E-05 0.00215016
v 0.003820859 -0.001721855 0.00215016
v 0.00179369 -0.00218227 0.002641685
v 0.002320928 -0.004539808 -0.002655669
v 0.002320928 -0.003997346 0.001101106
v 0.004855467 -0.003300483 0.0007316596
v 0.005760903 -0.00399603 -0.002655669
v 0.002209843 -0.0001684471 -0.002655669
v 0.002320928 -0.004539808 -0.002655669
v 0.005760903 -0.00399603 -0.002655669
v 0.005561912 8.332139E-05 -0.002655669
v 0.002098758 0.004223246 -0.002655669
v 0.005362919 0.004162674 -0.002655669
v 0.0008810331 0.003892379 0.001016243
v 0.0004835141 0.002183783 0.002655669
v -0.001958107 0.002414618 0.002584265
v -0.001852941 0.004244164 0.0009025009
v -0.0005066618 -1.709707E-05 0.002655669
v 0.0006619855 -0.002220113 0.002655669
v -0.001851232 -0.002309508 0.002584265
v -0.003131064 5.508388E-05 0.002584265
v 0.0004835141 0.002183783 0.002655669
v -0.003131064 5.508388E-05 0.002584265
v -0.001958107 0.002414618 0.002584265
v 0.0008810331 0.004375552 -0.002655669
v 0.0008810331 0.003892379 0.001016243
v -0.001852941 0.004244164 0.0009025009
v -0.001852941 0.004746697 -0.002655669
v 0.000975278 -0.0001320248 -0.002655669
v -0.001740062 -0.004752556 -0.002655669
v 0.001069527 -0.004608873 -0.002655669
v -0.001796501 -2.336357E-05 -0.002655669
v 0.0008810331 0.004375552 -0.002655669
v -0.001852941 0.004746697 -0.002655669
v -0.005934215 -0.004300306 -0.002655669
v -0.005934215 -0.003764487 0.0006180766
v -0.002734921 -0.004167293 0.0008350349
v -0.002734921 -0.004682228 -0.002655669
v -0.005934215 -0.003764487 0.0006180766
v -0.005818557 -0.002039471 0.001883116
v -0.002773907 -0.002275886 0.002531791
v -0.002734921 -0.004167293 0.0008350349
v 0.001583332 0.002101811 0.002641685
v 0.003444036 0.001906805 0.00215016
v 0.00282095 9.24752E-05 0.00215016
v 0.0006622593 -4.261107E-05 0.002641685
v 0.004500393 0.00181982 0.001880469
v 0.008226466 0.001313747 0.000148395
v 0.00833583 0.0003233694 0.0001877133
v 0.003992531 0.0001522625 0.001880469
v -0.002855432 0.002426901 0.002531791
v -0.00406035 7.757341E-05 0.002531791
v -0.007048775 0.0001340157 0.001883116
v -0.005818557 0.002308327 0.001883116
v -0.006774631 -0.001874393 0.001605443
v -0.009417779 -0.001174281 0.0001761301
v -0.009417779 0.0001333481 0.0001761301
v -0.007925421 0.0001335266 0.001605443
v 0.00179369 -0.00218227 0.002641685
v 0.002320928 -0.003997346 0.001101106
v 0.002320928 -0.003997346 0.001101106
v 0.002320928 -0.004539808 -0.002655669
v 0.005760903 -0.00399603 -0.002655669
v 0.004855467 -0.003300483 0.0007316596
v 0.006139243 -0.002900172 0.0006213784
v 0.007314955 -0.003436581 -0.002655669
v -0.006926163 -0.004005109 -0.002655669
v -0.00686009 -0.00348611 0.0002610689
v -0.005934215 -0.003764487 0.0006180766
v -0.005934215 -0.004300306 -0.002655669
v 0.003992531 0.0001522625 0.001880469
v 0.004926907 -0.001515295 0.001880469
v 0.004926907 -0.001515295 0.001880469
v 0.006139243 -0.002900172 0.0006213784
v -0.00686009 -0.00348611 0.0002610689
v -0.006774631 -0.001874393 0.001605443
v -0.005818557 -0.002039471 0.001883116
v -0.005934215 -0.003764487 0.0006180766
v -0.007048775 0.0001340157 0.001883116
v -0.007925421 0.0001335266 0.001605443
v -0.006774631 0.002142019 0.001605443
v -0.005818557 0.002308327 0.001883116
v -0.005934215 0.004566081 -0.002655669
v -0.005934215 0.004030824 0.0006180766
v -0.00686009 0.003752372 0.0002610689
v -0.006926163 0.004271565 -0.002655669
v -0.005934215 0.004030824 0.0006180766
v -0.005818557 0.002308327 0.001883116
v -0.006774631 0.002142019 0.001605443
v -0.00686009 0.003752372 0.0002610689
v 0.002098758 0.003737104 0.001101106
v 0.001583332 0.002101811 0.002641685
v 0.0006622593 -4.261107E-05 0.002641685
v 0.00179369 -0.00218227 0.002641685
v 0.001583332 0.002101811 0.002641685
v 0.002098758 0.004223246 -0.002655669
v 0.002098758 0.003737104 0.001101106
v 0.005688779 0.003244149 0.0006213784
v 0.004500393 0.00181982 0.001880469
v 0.003444036 0.001906805 0.00215016
v 0.004457484 0.003451898 0.0007316596
v 0.00686449 0.003828563 -0.002655669
v 0.005688779 0.003244149 0.0006213784
v 0.004457484 0.003451898 0.0007316596
v 0.005362919 0.004162674 -0.002655669
v -0.002734921 -0.004167293 0.0008350349
v -0.002773907 -0.002275886 0.002531791
v -0.001851232 -0.002309508 0.002584265
v -0.001740062 -0.004223468 0.0009025009
v -0.002734921 -0.004682228 -0.002655669
v -0.002734921 -0.004167293 0.0008350349
v -0.001740062 -0.004223468 0.0009025009
v -0.001740062 -0.004752556 -0.002655669
v -0.001852941 0.004244164 0.0009025009
v -0.001958107 0.002414618 0.002584265
v -0.002855432 0.002426901 0.002531791
v -0.002821023 0.004247778 0.0008350349
v -0.002773907 -0.002275886 0.002531791
v -0.00406035 7.757341E-05 0.002531791
v -0.001852941 0.004746697 -0.002655669
v -0.001852941 0.004244164 0.0009025009
v -0.002821023 0.004247778 0.0008350349
v -0.002821023 0.004752556 -0.002655669
v -0.00406035 7.757341E-05 0.002531791
v -0.002855432 0.002426901 0.002531791
v -0.005818557 -0.002039471 0.001883116
v -0.006774631 -0.001874393 0.001605443
v -0.007925421 0.0001335266 0.001605443
v -0.007048775 0.0001340157 0.001883116
v 0.004500393 0.00181982 0.001880469
v 0.003992531 0.0001522625 0.001880469
vn 0 0 -1
vn 0 0 -1
vn 0 0 -1
vn 0 0 -1
vn 0 0 -1
vn 0 0 -1
vn 0 0 -1
vn 0 0 -1
vn 0 0 -1
vn 0 0 -1
vn 0 0 -1
vn 0 0 -1
vn 0 0 -1
vn 0 0 -1
vn 0 0 -1
vn 0 0 -1
vn 0 0 -1
vn 0 0 -1
vn -0.5375977 0.5717773 0.6196289
vn -0.5375977 0.5717773 0.6196289
vn -0.5375977 0.5717773 0.6196289
vn -0.5375977 0.5717773 0.6196289
vn 0.7558594 0.07977295 0.6499023
vn 0.7558594 0.07977295 0.6499023
vn 0.7558594 0.07977295 0.6499023
vn 0.7558594 0.07977295 0.6499023
vn 0.7758789 0.08068848 0.6254883
vn 0.7758789 0.08068848 0.6254883
vn 0.07183838 0.9824219 0.1737061
vn 0.07183838 0.9824219 0.1737061
vn 0.07183838 0.9824219 0.1737061
vn 0.07183838 0.9824219 0.1737061
vn -0.9360352 0 0.3522949
vn -0.9404297 0 0.3400879
vn -0.9360352 0 0.3522949
vn -0.9404297 0 0.3400879
vn -0.9360352 0 0.3522949
vn -0.9404297 0 0.3400879
vn -0.9360352 0 0.3522949
vn -0.9404297 0 0.3400879
vn -0.9404297 0 0.3400879
vn 0.8574219 0.05828857 0.5112305
vn 0.8574219 0.05828857 0.5112305
vn 0.8574219 0.05828857 0.5112305
vn 0.8574219 0.05828857 0.5112305
vn 0.8666992 0.0586853 0.494873
vn 0.8666992 0.0586853 0.494873
vn -0.4121094 0.878418 0.2412109
vn -0.4121094 0.878418 0.2412109
vn -0.4121094 0.878418 0.2412109
vn -0.4121094 0.878418 0.2412109
vn -0.06915283 0.9858398 0.1516113
vn -0.06915283 0.9858398 0.1516113
vn -0.06915283 0.9858398 0.1516113
vn -0.06915283 0.9858398 0.1516113
vn 0.5063477 -0.7919922 0.3413086
vn 0.5063477 -0.7919922 0.3413086
vn 0.5063477 -0.7919922 0.3413086
vn 0.5063477 -0.7919922 0.3413086
vn 0.3620605 0.8735352 0.3249512
vn 0.3620605 0.8735352 0.3249512
vn 0.3620605 0.8735352 0.3249512
vn 0.3620605 0.8735352 0.3249512
vn -0.5800781 0.2011719 0.7895508
vn -0.5800781 0.2011719 0.7895508
vn -0.5800781 0.2011719 0.7895508
vn -0.5800781 0.2011719 0.7895508
vn -0.2142334 -0.1191406 0.9697266
vn -0.2142334 -0.1191406 0.9697266
vn -0.2142334 -0.1191406 0.9697266
vn -0.2142334 -0.1191406 0.9697266
vn 0.3691406 0.1585693 0.9155273
vn 0.3691406 0.1585693 0.9155273
vn 0.3691406 0.1585693 0.9155273
vn 0.3691406 0.1585693 0.9155273
vn -0.1433105 0.6328125 0.7607422
vn -0.1433105 0.6328125 0.7607422
vn -0.1433105 0.6328125 0.7607422
vn -0.1433105 0.6328125 0.7607422
vn 0.5146484 -0.3972168 0.7597656
vn 0.5146484 -0.3972168 0.7597656
vn 0.5146484 -0.3972168 0.7597656
vn 0.5146484 -0.3972168 0.7597656
vn 0.4655762 0.4211426 0.7783203
vn 0.4655762 0.4211426 0.7783203
vn 0.4655762 0.4211426 0.7783203
vn 0.4655762 0.4211426 0.7783203
vn 0.2247314 0.6035156 0.7651367
vn 0.2247314 0.6035156 0.7651367
vn 0.2247314 0.6035156 0.7651367
vn 0.2247314 0.6035156 0.7651367
vn -0.5375977 -0.5717773 0.6196289
vn -0.5375977 -0.5717773 0.6196289
vn -0.5375977 -0.5717773 0.6196289
vn -0.5375977 -0.5717773 0.6196289
vn -0.4121094 -0.878418 0.2410889
vn -0.4121094 -0.878418 0.2410889
vn -0.4121094 -0.878418 0.2410889
vn -0.4121094 -0.878418 0.2410889
vn 0.04818726 -0.9882813 0.1451416
vn 0.04818726 -0.9882813 0.1451416
vn 0.0536499 -0.9882813 0.1429443
vn 0.0536499 -0.9882813 0.1429443
vn 0.003242493 -0.6606445 0.7504883
vn 0.003242493 -0.6606445 0.7504883
vn 0.009536743 -0.6533203 0.7568359
vn 0.009536743 -0.6533203 0.7568359
vn 0.2875977 -0.5507813 0.7836914
vn 0.2875977 -0.5507813 0.7836914
vn 0.2626953 -0.5297852 0.8066406
vn 0.2626953 -0.5297852 0.8066406
vn 0.2116699 0.1141357 0.9707031
vn 0.2154541 0.119751 0.9692383
vn 0.2154541 0.119751 0.9692383
vn 0.2116699 0.1141357 0.9707031
vn 0.2109375 -0.9584961 0.192749
vn 0.2109375 -0.9584961 0.192749
vn 0.2109375 -0.9584961 0.192749
vn 0.2109375 -0.9584961 0.192749
vn 0 0 -1
vn 0 0 -1
vn 0 0 -1
vn 0 0 -1
vn 0 0 -1
vn 0 0 -1
vn 0.04742432 0.6816406 0.7304688
vn 0.04742432 0.6816406 0.7304688
vn 0.050354 0.6796875 0.7319336
vn 0.050354 0.6796875 0.7319336
vn 0.01212311 0.006420135 1
vn 0.01212311 0.006420135 1
vn -0.02774048 -0.01486969 0.9995117
vn -0.02774048 -0.01486969 0.9995117
vn -0.02740479 0.01299286 0.9995117
vn -0.05679321 0.02868652 0.9980469
vn -0.05679321 0.02868652 0.9980469
vn 0.119873 0.984375 0.128418
vn 0.119873 0.984375 0.128418
vn 0.1271973 0.9829102 0.1340332
vn 0.1271973 0.9829102 0.1340332
vn 0 0 -1
vn 0 0 -1
vn 0 0 -1
vn 0 0 -1
vn 0 0 -1
vn 0 0 -1
vn -0.1253662 -0.9804688 0.1522217
vn -0.1253662 -0.9804688 0.1522217
vn -0.1253662 -0.9804688 0.1522217
vn -0.1253662 -0.9804688 0.1522217
vn -0.1696777 -0.6220703 0.7641602
vn -0.1696777 -0.6220703 0.7641602
vn -0.1696777 -0.6220703 0.7641602
vn -0.1696777 -0.6220703 0.7641602
vn 0.2352295 -0.09179688 0.9677734
vn 0.2352295 -0.09179688 0.9677734
vn 0.2352295 -0.09179688 0.9677734
vn 0.2352295 -0.09179688 0.9677734
vn 0.3886719 -0.04467773 0.9204102
vn 0.3886719 -0.04467773 0.9204102
vn 0.3886719 -0.04467773 0.9204102
vn 0.3886719 -0.04467773 0.9204102
vn -0.2127686 0.114502 0.9702148
vn -0.2127686 0.114502 0.9702148
vn -0.2127686 0.114502 0.9702148
vn -0.2127686 0.114502 0.9702148
vn -0.5795898 -0.2012939 0.7895508
vn -0.5795898 -0.2012939 0.7895508
vn -0.5795898 -0.2012939 0.7895508
vn -0.5795898 -0.2012939 0.7895508
vn 0.009536743 -0.6533203 0.7568359
vn 0.009536743 -0.6533203 0.7568359
vn 0.0536499 -0.9882813 0.1429443
vn 0.0536499 -0.9882813 0.1429443
vn 0.3181152 -0.909668 0.267334
vn 0.3181152 -0.909668 0.267334
vn 0.3181152 -0.909668 0.267334
vn 0.3181152 -0.909668 0.267334
vn -0.3103027 -0.9365234 0.1628418
vn -0.3103027 -0.9365234 0.1628418
vn -0.3103027 -0.9365234 0.1628418
vn -0.3103027 -0.9365234 0.1628418
vn 0.2154541 0.119751 0.9692383
vn 0.2154541 0.119751 0.9692383
vn 0.2626953 -0.5297852 0.8066406
vn 0.2626953 -0.5297852 0.8066406
vn -0.3803711 -0.5551758 0.7397461
vn -0.3803711 -0.5551758 0.7397461
vn -0.3803711 -0.5551758 0.7397461
vn -0.3803711 -0.5551758 0.7397461
vn -0.3000488 0.1707764 0.9384766
vn -0.3000488 0.1707764 0.9384766
vn -0.3000488 0.1707764 0.9384766
vn -0.3000488 0.1707764 0.9384766
vn -0.3100586 0.9365234 0.1628418
vn -0.3100586 0.9365234 0.1628418
vn -0.3100586 0.9365234 0.1628418
vn -0.3100586 0.9365234 0.1628418
vn -0.3806152 0.5556641 0.7392578
vn -0.3806152 0.5556641 0.7392578
vn -0.3806152 0.5556641 0.7392578
vn -0.3806152 0.5556641 0.7392578
vn 0.04742432 0.6816406 0.7304688
vn 0.04742432 0.6816406 0.7304688
vn 0.01212311 0.006420135 1
vn 0.01212311 0.006420135 1
vn 0.01207733 -0.005310059 1
vn 0.119873 0.984375 0.128418
vn 0.119873 0.984375 0.128418
vn 0.2055664 0.5668945 0.7978516
vn 0.2055664 0.5668945 0.7978516
vn 0.2055664 0.5668945 0.7978516
vn 0.2055664 0.5668945 0.7978516
vn 0.197998 0.9487305 0.2462158
vn 0.197998 0.9487305 0.2462158
vn 0.197998 0.9487305 0.2462158
vn 0.197998 0.9487305 0.2462158
vn -0.07763672 -0.6635742 0.7441406
vn -0.07763672 -0.6635742 0.7441406
vn -0.07763672 -0.6635742 0.7441406
vn -0.07763672 -0.6635742 0.7441406
vn -0.06768799 -0.9868164 0.1461182
vn -0.06768799 -0.9868164 0.1461182
vn -0.06768799 -0.9868164 0.1461182
vn -0.06768799 -0.9868164 0.1461182
vn -0.0413208 0.6796875 0.7324219
vn -0.0413208 0.6796875 0.7324219
vn -0.0413208 0.6796875 0.7324219
vn -0.0413208 0.6796875 0.7324219
vn -0.05749512 -0.03128052 0.9980469
vn -0.05749512 -0.03128052 0.9980469
vn -8.59499E-05 0.9897461 0.1414795
vn -8.59499E-05 0.9897461 0.1414795
vn -8.59499E-05 0.9897461 0.1414795
vn -8.59499E-05 0.9897461 0.1414795
vn -0.05679321 0.02868652 0.9980469
vn -0.05679321 0.02868652 0.9980469
vn -0.2998047 -0.1706543 0.9384766
vn -0.2998047 -0.1706543 0.9384766
vn -0.2998047 -0.1706543 0.9384766
vn -0.2998047 -0.1706543 0.9384766
vn 0.2337646 -0.07592773 0.9692383
vn 0.2337646 -0.07592773 0.9692383
g Salmon_0
f 3/3/3 2/2/2 1/1/1
f 4/4/4 3/3/3 1/1/1
f 4/4/4 1/1/1 5/5/5
f 6/6/6 4/4/4 5/5/5
f 9/9/9 8/8/8 7/7/7
f 8/8/8 10/10/10 7/7/7
f 7/7/7 10/10/10 11/11/11
f 10/10/10 12/12/12 11/11/11
f 15/15/15 14/14/14 13/13/13
f 16/16/16 15/15/15 13/13/13
f 16/16/16 13/13/13 17/17/17
f 18/18/18 16/16/16 17/17/17
f 21/21/21 20/20/20 19/19/19
f 22/22/22 21/21/21 19/19/19
f 25/25/25 24/24/24 23/23/23
f 24/24/24 26/26/26 23/23/23
f 23/23/23 26/26/26 27/27/27
f 26/26/26 28/28/28 27/27/27
f 31/31/31 30/30/30 29/29/29
f 32/32/32 31/31/31 29/29/29
f 35/35/35 34/34/34 33/33/33
f 34/34/34 36/36/36 33/33/33
f 33/33/33 36/36/36 37/37/37
f 34/34/34 38/38/38 36/36/36
f 36/36/36 39/39/39 37/37/37
f 38/38/38 40/40/40 36/36/36
f 36/36/36 40/40/40 39/39/39
f 40/40/40 41/41/41 39/39/39
f 44/44/44 43/43/43 42/42/42
f 43/43/43 45/45/45 42/42/42
f 42/42/42 45/45/45 46/46/46
f 45/45/45 47/47/47 46/46/46
f 50/50/50 49/49/49 48/48/48
f 51/51/51 50/50/50 48/48/48
f 54/54/54 53/53/53 52/52/52
f 55/55/55 54/54/54 52/52/52
f 58/58/58 57/57/57 56/56/56
f 59/59/59 58/58/58 56/56/56
f 62/62/62 61/61/61 60/60/60
f 63/63/63 62/62/62 60/60/60
f 66/66/66 65/65/65 64/64/64
f 67/67/67 66/66/66 64/64/64
f 70/70/70 69/69/69 68/68/68
f 71/71/71 70/70/70 68/68/68
f 74/74/74 73/73/73 72/72/72
f 75/75/75 74/74/74 72/72/72
f 78/78/78 77/77/77 76/76/76
f 79/79/79 78/78/78 76/76/76
f 82/82/82 81/81/81 80/80/80
f 83/83/83 82/82/82 80/80/80
f 86/86/86 85/85/85 84/84/84
f 87/87/87 86/86/86 84/84/84
f 90/90/90 89/89/89 88/88/88
f 91/91/91 90/90/90 88/88/88
f 94/94/94 93/93/93 92/92/92
f 95/95/95 94/94/94 92/92/92
f 98/98/98 97/97/97 96/96/96
f 99/99/99 98/98/98 96/96/96
f 102/102/102 101/101/101 100/100/100
f 103/103/103 102/102/102 100/100/100
f 106/106/106 105/105/105 104/104/104
f 107/107/107 106/106/106 104/104/104
f 110/110/110 109/109/109 108/108/108
f 111/111/111 110/110/110 108/108/108
f 114/114/114 113/113/113 112/112/112
f 115/115/115 114/114/114 112/112/112
f 118/118/118 117/117/117 116/116/116
f 119/119/119 118/118/118 116/116/116
f 122/122/122 121/121/121 120/120/120
f 123/123/123 122/122/122 120/120/120
f 123/123/123 120/120/120 124/124/124
f 125/125/125 123/123/123 124/124/124
f 128/128/128 127/127/127 126/126/126
f 129/129/129 128/128/128 126/126/126
f 132/132/132 131/131/131 130/130/130
f 133/133/133 132/132/132 130/130/130
f 135/135/135 130/130/130 134/134/134
f 136/136/136 135/135/135 134/134/134
f 139/139/139 138/138/138 137/137/137
f 140/140/140 139/139/139 137/137/137
f 143/143/143 142/142/142 141/141/141
f 142/142/142 144/144/144 141/141/141
f 141/141/141 144/144/144 145/145/145
f 144/144/144 146/146/146 145/145/145
f 149/149/149 148/148/148 147/147/147
f 150/150/150 149/149/149 147/147/147
f 153/153/153 152/152/152 151/151/151
f 154/154/154 153/153/153 151/151/151
f 157/157/157 156/156/156 155/155/155
f 158/158/158 157/157/157 155/155/155
f 161/161/161 160/160/160 159/159/159
f 162/162/162 161/161/161 159/159/159
f 165/165/165 164/164/164 163/163/163
f 166/166/166 165/165/165 163/163/163
f 169/169/169 168/168/168 167/167/167
f 170/170/170 169/169/169 167/167/167
g Salmon_1
f 14/14/14 122/122/122 123/123/123
f 13/13/13 14/14/14 123/123/123
f 13/13/13 123/123/123 125/125/125
f 17/17/17 13/13/13 125/125/125
f 171/171/171 106/106/106 107/107/107
f 172/172/172 171/171/171 107/107/107
f 173/173/173 102/102/102 103/103/103
f 174/174/174 173/173/173 103/103/103
f 177/177/177 176/176/176 175/175/175
f 178/178/178 177/177/177 175/175/175
f 181/181/181 180/180/180 179/179/179
f 182/182/182 181/181/181 179/179/179
f 184/184/184 183/183/183 113/113/113
f 114/114/114 184/184/184 113/113/113
f 185/185/185 110/110/110 111/111/111
f 186/186/186 185/185/185 111/111/111
f 189/189/189 188/188/188 187/187/187
f 190/190/190 189/189/189 187/187/187
f 193/193/193 192/192/192 191/191/191
f 194/194/194 193/193/193 191/191/191
f 197/197/197 196/196/196 195/195/195
f 198/198/198 197/197/197 195/195/195
f 201/201/201 200/200/200 199/199/199
f 202/202/202 201/201/201 199/199/199
f 2/2/2 12/12/12 10/10/10
f 1/1/1 2/2/2 10/10/10
f 1/1/1 10/10/10 8/8/8
f 5/5/5 1/1/1 8/8/8
f 127/127/127 204/204/204 203/203/203
f 126/126/126 127/127/127 203/203/203
f 131/131/131 206/206/206 205/205/205
f 130/130/130 131/131/131 205/205/205
f 130/130/130 205/205/205 207/207/207
f 134/134/134 130/130/130 207/207/207
f 138/138/138 209/209/209 208/208/208
f 137/137/137 138/138/138 208/208/208
f 121/121/121 143/143/143 120/120/120
f 143/143/143 141/141/141 120/120/120
f 120/120/120 141/141/141 124/124/124
f 141/141/141 145/145/145 124/124/124
f 212/212/212 211/211/211 210/210/210
f 213/213/213 212/212/212 210/210/210
f 216/216/216 215/215/215 214/214/214
f 217/217/217 216/216/216 214/214/214
f 220/220/220 219/219/219 218/218/218
f 221/221/221 220/220/220 218/218/218
f 224/224/224 223/223/223 222/222/222
f 225/225/225 224/224/224 222/222/222
f 228/228/228 227/227/227 226/226/226
f 229/229/229 228/228/228 226/226/226
f 230/230/230 132/132/132 133/133/133
f 231/231/231 230/230/230 133/133/133
f 234/234/234 233/233/233 232/232/232
f 235/235/235 234/234/234 232/232/232
f 142/142/142 9/9/9 144/144/144
f 9/9/9 7/7/7 144/144/144
f 144/144/144 7/7/7 146/146/146
f 7/7/7 11/11/11 146/146/146
f 236/236/236 135/135/135 136/136/136
f 237/237/237 236/236/236 136/136/136
f 240/240/240 239/239/239 238/238/238
f 241/241/241 240/240/240 238/238/238
f 243/243/243 242/242/242 156/156/156
f 157/157/157 243/243/243 156/156/156
